# xmcd CD database file
#
# Track frame offsets:
#	150
#	21083
#	41717
#	61839
#	81739
#	99077
#	115490
#	133779
#	152319
#	170330
#	190162
#	206637
#	225183
#	244587
#	260479
#	279978
#	302428
#	324300
#
# Disc length: 4492 seconds
#
# Revision: 0
# Processed by: cddbd v1.4b41PL1 Copyright (c) Steve Scherf et al.
# Submitted via: Feurio! 1.61 - http://www.feurio.com
#
DISCID=e4118a12
DTITLE=Various Artist - Kuschelrock 12 - CD1
DYEAR=1900
DGENRE=
TTITLE0=CELIN DION - MY HEART WILL GO ON
TTITLE1=SAVAGE GARDEN - TRULY MADLY DEEPLY
TTITLE2=TONY BRAXTON - UN-BREAK MY HEART
TTITLE3=ROBBIE WILLIAMS - ANGELS
TTITLE4=BARBRA STREISAND - WOMAN IN LOVE
TTITLE5=ESPEN LIND - WHEN SUSANNAH CRIES
TTITLE6=NATALIE IMBRUGLIA - TORN
TTITLE7=BRUCE SPRINSTEEN - THE RIVER
TTITLE8=MIDGE URE - BREATHE
TTITLE9=LEANN RIMES - HOW DO I LIVE
TTITLE10=FLEEDWOOD MAC - SARA
TTITLE11=WET WET WET - JULIA SAYS
TTITLE12=ETERNAL - ANGEL OF MINE
TTITLE13=BACKSTREET BOYS - AS LONG AS YOU LOVE ME
TTITLE14=GLORIA ESTEFAN - I'M NOT GIVING YOU UP
TTITLE15=RICKY MARTIN - CARAZONADO
TTITLE16=DES'REE - I'M KISSING YOU
TTITLE17=MICHAEL JACKSON - EARTH SONG
EXTD=
EXTT0=
EXTT1=
EXTT2=
EXTT3=
EXTT4=
EXTT5=
EXTT6=
EXTT7=
EXTT8=
EXTT9=
EXTT10=
EXTT11=
EXTT12=
EXTT13=
EXTT14=
EXTT15=
EXTT16=
EXTT17=
PLAYORDER=
